
	.db 120, 0, C5, C3|en, 180, 0, C5|en, 240, 0, G5, E3|en, 44, 1, G5|en, 104, 1
	.db A5, F3|en, 164, 1, A5|en, 224, 1, G5, E3|en, 88, 2, F5, D3|en, 148, 2, F5|en
	.db 208, 2, E5, C3|en, 12, 3, E5|en, 72, 3, D5, F3|en, 132, 3, D5, G3|en, 192
	.db 3, C5, E3|en, 56, 4, G5, E3|en, 116, 4, G5|en, 176, 4, F5, D3|en, 236, 4
	.db F5|en, 40, 5, E5, C3|en, 100, 5, E5|en, 160, 5, D5, G3|en, 24, 6, G5, E3|en
	.db 84, 6, G5|en, 144, 6, F5, D3|en, 204, 6, F5|en, 8, 7, E5, C3|en, 68, 7
	.db E5|en, 128, 7, E5, C3|en, 188, 7, D5, G3|en, 248, 7, C5, C3|en, 52, 8, C5|en
	.db 112, 8, G5, E3|en, 172, 8, G5|en, 232, 8, A5, F3|en, 36, 9, A5|en, 96, 9
	.db G5, E3|en, 216, 9, F5, D3|en, 20, 10, F5|en, 80, 10, E5, C3|en, 140, 10, E5|en
	.db 200, 10, D5, F3|en, 4, 11, D5, B4|en, 64, 11, C5, C3|en, 228, 12, EoS|en
;159
